<svg id="Layer_1" data-name="Layer 1" xmlns="http://www.w3.org/2000/svg" viewBox="0 0 653.17 121.5"><defs><style>.cls-1{fill:#004c97;}.cls-2{fill:#282828;}</style></defs><title>accountancyage_strapline_rgb [Converted]</title><path class="cls-1" d="M138.55,285.13H109.84l-5.76,15.48H94.36L118.3,238h12.24l23.94,62.64H144.31Zm-3.15-8.28L124.24,247,113,276.85Z" transform="translate(-94.36 -236.89)"/><path class="cls-1" d="M166,298.63a20.42,20.42,0,0,1-8-8.59,30.55,30.55,0,0,1,0-25.61,21.27,21.27,0,0,1,8-8.73,22.82,22.82,0,0,1,12.1-3.15q8.91,0,14.31,4.05v8.91h-.36a22.48,22.48,0,0,0-13.77-4.41q-6.3,0-9.63,4.41t-3.33,11.88q0,7.29,3.28,11.52t9.58,4.23a22.64,22.64,0,0,0,14.4-5.22H193v9q-5.76,4.77-14.85,4.77A23.53,23.53,0,0,1,166,298.63Z" transform="translate(-94.36 -236.89)"/><path class="cls-1" d="M207.23,298.63a20.42,20.42,0,0,1-8-8.59,30.55,30.55,0,0,1,0-25.61,21.27,21.27,0,0,1,8-8.73,22.82,22.82,0,0,1,12.11-3.15q8.91,0,14.31,4.05v8.91h-.36a22.48,22.48,0,0,0-13.77-4.41q-6.3,0-9.63,4.41t-3.33,11.88q0,7.29,3.28,11.52t9.58,4.23a22.64,22.64,0,0,0,14.4-5.22h.36v9q-5.76,4.77-14.85,4.77A23.53,23.53,0,0,1,207.23,298.63Z" transform="translate(-94.36 -236.89)"/><path class="cls-1" d="M248.93,298.63a20.22,20.22,0,0,1-7.87-8.59,31.75,31.75,0,0,1,0-25.83,20.23,20.23,0,0,1,7.87-8.6,25.29,25.29,0,0,1,24.12,0,20.24,20.24,0,0,1,7.87,8.6,31.75,31.75,0,0,1,0,25.83,20.23,20.23,0,0,1-7.87,8.59,25.29,25.29,0,0,1-24.12,0Zm21.24-9.5q3.15-4.36,3.15-12t-3.15-12q-3.15-4.36-9.18-4.37t-9.13,4.37q-3.1,4.37-3.1,12t3.1,12q3.1,4.37,9.13,4.37T270.17,289.13Z" transform="translate(-94.36 -236.89)"/><path class="cls-1" d="M322.67,300.61l-1.44-6.3a34.5,34.5,0,0,1-8.05,5.67,19.63,19.63,0,0,1-8.41,1.71,13.27,13.27,0,0,1-10.35-4.28q-3.87-4.27-3.87-11.12V253.63h9.72V282.7a13.26,13.26,0,0,0,1.89,7.6,6.25,6.25,0,0,0,5.49,2.75,14.37,14.37,0,0,0,6.44-1.44,27.07,27.07,0,0,0,6.16-4.41V253.63H330v36.54l2,10.44Z" transform="translate(-94.36 -236.89)"/><path class="cls-1" d="M375.92,256.69q3.87,4.14,3.87,11.25v32.67h-9.72V271.54q0-5.22-1.89-7.79t-5.85-2.56a14.18,14.18,0,0,0-6.34,1.39,23.77,23.77,0,0,0-5.89,4.36v33.66h-9.72V264.07l-2-10.44h9.27l1.44,6.3a30.72,30.72,0,0,1,7.74-5.67,19.31,19.31,0,0,1,8.37-1.71Q372.05,252.55,375.92,256.69Z" transform="translate(-94.36 -236.89)"/><path class="cls-1" d="M401.6,253.63h12v7.74h-12v25a8.63,8.63,0,0,0,1.39,5.22,4.87,4.87,0,0,0,4.19,1.89,15.35,15.35,0,0,0,6.48-1.71v8.28a21.51,21.51,0,0,1-8.55,1.62q-6.39,0-9.81-3.87t-3.42-11V261.37h-8v-7.74h8V241l9.72-4.14Z" transform="translate(-94.36 -236.89)"/><path class="cls-1" d="M449.39,300.61l-1.17-6.21a21.31,21.31,0,0,1-16.2,7.29A16.08,16.08,0,0,1,421.13,298a12.13,12.13,0,0,1-4.23-9.67q0-7.83,6.12-11.84t16.47-4q4.23,0,7.92.36v-2.52q0-4.5-2.47-6.93a9.54,9.54,0,0,0-7-2.43,27.13,27.13,0,0,0-9,1.44,36.06,36.06,0,0,0-8.6,4.59v-9a27.62,27.62,0,0,1,8.6-4.23,36.87,36.87,0,0,1,10-1.26q8.46,0,13.32,4.46t4.86,12.29v20.88l2,10.44Zm-8.5-8.33a26,26,0,0,0,6.52-4.91v-7.65h-8.46q-5.67,0-8.82,1.8T427,287.65a6,6,0,0,0,1.8,4.63,7,7,0,0,0,5,1.67A15.59,15.59,0,0,0,440.89,292.28Z" transform="translate(-94.36 -236.89)"/><path class="cls-1" d="M501.56,256.69q3.87,4.14,3.87,11.25v32.67h-9.72V271.54q0-5.22-1.89-7.79T488,261.19a14.18,14.18,0,0,0-6.34,1.39,23.77,23.77,0,0,0-5.89,4.36v33.66H466V264.07l-2-10.44h9.27l1.44,6.3a30.71,30.71,0,0,1,7.74-5.67,19.31,19.31,0,0,1,8.37-1.71Q497.69,252.55,501.56,256.69Z" transform="translate(-94.36 -236.89)"/><path class="cls-1" d="M522.86,298.63a20.41,20.41,0,0,1-8-8.59,30.55,30.55,0,0,1,0-25.61,21.27,21.27,0,0,1,8-8.73,22.82,22.82,0,0,1,12.11-3.15q8.91,0,14.31,4.05v8.91H549a22.49,22.49,0,0,0-13.77-4.41q-6.3,0-9.63,4.41t-3.33,11.88q0,7.29,3.29,11.52t9.58,4.23a22.64,22.64,0,0,0,14.4-5.22h.36v9q-5.76,4.77-14.85,4.77A23.53,23.53,0,0,1,522.86,298.63Z" transform="translate(-94.36 -236.89)"/><path class="cls-1" d="M599.14,253.63l-26.91,67.86h-9.54l7.92-19.89-18.81-48h9.9l13.95,36.63,13.5-36.63Z" transform="translate(-94.36 -236.89)"/><path class="cls-1" d="M638.83,285.13H610.12l-5.76,15.48h-9.72L618.58,238h12.24l23.94,62.64H644.59Zm-3.15-8.28L624.52,247l-11.25,29.88Z" transform="translate(-94.36 -236.89)"/><path class="cls-1" d="M700.49,253.54l-2,10.44V298.9q0,11.34-5.89,17.5t-16.7,6.17a33.82,33.82,0,0,1-10.12-1.35,27.65,27.65,0,0,1-8.33-4.41v-9.45a31.09,31.09,0,0,0,8.5,5,27.54,27.54,0,0,0,9.5,1.53q6.84,0,10.08-3.73t3.24-10.58v-2.88a20.4,20.4,0,0,1-5.81,2.52,27.26,27.26,0,0,1-6.88.81q-9.81,0-15.16-6.21t-5.35-17.19q0-11.34,5.58-17.69T677,252.55a26.24,26.24,0,0,1,6.43.72,47,47,0,0,1,6.79,2.43l.54-2.16Zm-17.82,36.86a27,27,0,0,0,6.12-2.93V262.36a35.16,35.16,0,0,0-10.8-1.44q-12.06,0-12.06,15.66,0,7.29,2.48,11t7.87,3.73A21,21,0,0,0,682.67,290.39Z" transform="translate(-94.36 -236.89)"/><path class="cls-1" d="M747.53,280.18h-33a15.66,15.66,0,0,0,4.36,9.77q3.65,3.56,9.86,3.55a23.63,23.63,0,0,0,8.28-1.58,32.59,32.59,0,0,0,8.19-4.54h.36v8.73a27.55,27.55,0,0,1-16.92,5.58,25.32,25.32,0,0,1-12.69-3.06,20.47,20.47,0,0,1-8.28-8.68,28.13,28.13,0,0,1-2.88-13,28.89,28.89,0,0,1,2.66-12.65,20.31,20.31,0,0,1,7.61-8.64,21.22,21.22,0,0,1,11.52-3.1A19.24,19.24,0,0,1,745,264.34a30.78,30.78,0,0,1,2.52,12.78Zm-29.07-16.24a16.32,16.32,0,0,0-3.87,9.22h23a17.93,17.93,0,0,0-3.47-9.31,9.16,9.16,0,0,0-7.51-3.37A10.45,10.45,0,0,0,718.46,263.93Z" transform="translate(-94.36 -236.89)"/><path class="cls-2" d="M94.36,350.51V324.24h8.59q4.28,0,6.43,1.77a6.37,6.37,0,0,1,2.16,5.23,5.33,5.33,0,0,1-1,3.26,6.78,6.78,0,0,1-2.85,2.19A6.09,6.09,0,0,1,111,339a6.5,6.5,0,0,1,1.24,4,7,7,0,0,1-2.29,5.56,9.47,9.47,0,0,1-6.48,2Zm3.46-15.06h5.23a5.48,5.48,0,0,0,3.63-1.14,3.81,3.81,0,0,0,1.36-3.09,3.75,3.75,0,0,0-1.26-3.15,6.19,6.19,0,0,0-3.84-1H97.83Zm0,2.78v9.45h5.72a5.51,5.51,0,0,0,3.82-1.25,4.4,4.4,0,0,0,1.4-3.45q0-4.74-5.16-4.74Z" transform="translate(-94.36 -236.89)"/><path class="cls-2" d="M124.22,350.87a8.53,8.53,0,0,1-6.46-2.61,9.67,9.67,0,0,1-2.49-7v-.61a11.71,11.71,0,0,1,1.11-5.19,8.66,8.66,0,0,1,3.1-3.57,7.8,7.8,0,0,1,4.32-1.29,7.31,7.31,0,0,1,5.92,2.51q2.11,2.51,2.11,7.18v1.39H118.61a6.94,6.94,0,0,0,1.69,4.66,5.3,5.3,0,0,0,4.1,1.78,5.81,5.81,0,0,0,3-.72,7.52,7.52,0,0,0,2.15-1.91l2,1.59A8.2,8.2,0,0,1,124.22,350.87Zm-.41-17.5a4.45,4.45,0,0,0-3.39,1.47,7.15,7.15,0,0,0-1.7,4.12h9.78v-.25a6.36,6.36,0,0,0-1.37-3.94A4.19,4.19,0,0,0,123.8,333.37Z" transform="translate(-94.36 -236.89)"/><path class="cls-2" d="M141.07,345.62,145.62,331h3.57l-7.85,22.53q-1.82,4.87-5.79,4.87l-.63-.05-1.24-.23V355.4l.9.07a4.44,4.44,0,0,0,2.64-.69,5,5,0,0,0,1.56-2.51l.74-2-7-19.3h3.64Z" transform="translate(-94.36 -236.89)"/><path class="cls-2" d="M150,340.57a11.53,11.53,0,0,1,1.13-5.16,8.41,8.41,0,0,1,3.14-3.54,8.55,8.55,0,0,1,4.59-1.24,8.23,8.23,0,0,1,6.45,2.76,10.62,10.62,0,0,1,2.46,7.34V341a11.63,11.63,0,0,1-1.09,5.11,8.29,8.29,0,0,1-3.12,3.53,8.64,8.64,0,0,1-4.66,1.26,8.21,8.21,0,0,1-6.43-2.76A10.57,10.57,0,0,1,150,340.8Zm3.36.4a8.35,8.35,0,0,0,1.51,5.21,5.1,5.1,0,0,0,8.07,0,9.13,9.13,0,0,0,1.5-5.58,8.34,8.34,0,0,0-1.52-5.2,4.85,4.85,0,0,0-4.05-2,4.79,4.79,0,0,0-4,2A9.06,9.06,0,0,0,153.35,341Z" transform="translate(-94.36 -236.89)"/><path class="cls-2" d="M174.34,331l.11,2.45a7.11,7.11,0,0,1,5.84-2.81q6.19,0,6.24,7v12.9H183.2V337.59a4.49,4.49,0,0,0-1-3.12,3.87,3.87,0,0,0-2.95-1,4.82,4.82,0,0,0-2.85.87,5.88,5.88,0,0,0-1.91,2.27v13.91h-3.34V331Z" transform="translate(-94.36 -236.89)"/><path class="cls-2" d="M190,340.59a11.43,11.43,0,0,1,2.13-7.22,7.24,7.24,0,0,1,11-.39V322.8h3.34v27.71h-3.07l-.16-2.09a6.8,6.8,0,0,1-5.57,2.45,6.67,6.67,0,0,1-5.53-2.78,11.56,11.56,0,0,1-2.14-7.25Zm3.34.38a8.66,8.66,0,0,0,1.37,5.2,4.43,4.43,0,0,0,3.79,1.88,4.87,4.87,0,0,0,4.64-2.85v-9a4.91,4.91,0,0,0-4.6-2.76,4.45,4.45,0,0,0-3.82,1.89A9.53,9.53,0,0,0,193.31,341Z" transform="translate(-94.36 -236.89)"/><path class="cls-2" d="M223.82,326.26V331h3.64v2.58h-3.64v12.12a2.71,2.71,0,0,0,.49,1.76A2.05,2.05,0,0,0,226,348a8.08,8.08,0,0,0,1.59-.22v2.69a9.79,9.79,0,0,1-2.56.36,4.16,4.16,0,0,1-3.37-1.35,5.81,5.81,0,0,1-1.14-3.84v-12.1h-3.55V331h3.55v-4.73Z" transform="translate(-94.36 -236.89)"/><path class="cls-2" d="M233.69,333.35a7.1,7.1,0,0,1,5.77-2.72q6.19,0,6.24,7v12.9h-3.34V337.59a4.49,4.49,0,0,0-1-3.12,3.87,3.87,0,0,0-2.95-1,4.82,4.82,0,0,0-2.85.87,5.88,5.88,0,0,0-1.91,2.27v13.91h-3.34V322.8h3.34Z" transform="translate(-94.36 -236.89)"/><path class="cls-2" d="M258.06,350.87a8.53,8.53,0,0,1-6.46-2.61,9.67,9.67,0,0,1-2.49-7v-.61a11.71,11.71,0,0,1,1.11-5.19,8.66,8.66,0,0,1,3.1-3.57,7.8,7.8,0,0,1,4.32-1.29,7.31,7.31,0,0,1,5.92,2.51q2.11,2.51,2.11,7.18v1.39H252.45a6.94,6.94,0,0,0,1.69,4.66,5.3,5.3,0,0,0,4.1,1.78,5.81,5.81,0,0,0,3-.72,7.52,7.52,0,0,0,2.15-1.91l2,1.59A8.2,8.2,0,0,1,258.06,350.87Zm-.41-17.5a4.45,4.45,0,0,0-3.39,1.47,7.15,7.15,0,0,0-1.7,4.12h9.78v-.25a6.36,6.36,0,0,0-1.37-3.94A4.19,4.19,0,0,0,257.65,333.37Z" transform="translate(-94.36 -236.89)"/><path class="cls-2" d="M280.36,331l.11,2.45a7.11,7.11,0,0,1,5.84-2.81q6.19,0,6.24,7v12.9h-3.34V337.59a4.49,4.49,0,0,0-1-3.12,3.87,3.87,0,0,0-2.95-1,4.82,4.82,0,0,0-2.85.87,5.88,5.88,0,0,0-1.91,2.27v13.91h-3.34V331Z" transform="translate(-94.36 -236.89)"/><path class="cls-2" d="M308.84,348.58a7.09,7.09,0,0,1-5.72,2.29,6.07,6.07,0,0,1-4.75-1.81,7.85,7.85,0,0,1-1.65-5.37V331h3.34V343.6q0,4.44,3.61,4.44,3.82,0,5.09-2.85V331h3.34v19.52h-3.17Z" transform="translate(-94.36 -236.89)"/><path class="cls-2" d="M319.58,331l.09,2.16a7.21,7.21,0,0,1,5.79-2.53q4.09,0,5.57,3.14a7.39,7.39,0,0,1,2.53-2.27,7.49,7.49,0,0,1,3.69-.87q6.42,0,6.53,6.8v13.08h-3.34V337.63a4.48,4.48,0,0,0-1-3.13,4.21,4.21,0,0,0-3.21-1,4.43,4.43,0,0,0-3.08,1.11,4.5,4.5,0,0,0-1.43,3v13h-3.36V337.72q0-4.26-4.17-4.26a4.47,4.47,0,0,0-4.49,2.8v14.25h-3.34V331Z" transform="translate(-94.36 -236.89)"/><path class="cls-2" d="M364.61,341a11.61,11.61,0,0,1-2.06,7.19,6.57,6.57,0,0,1-5.52,2.71,6.8,6.8,0,0,1-5.72-2.62l-.16,2.25h-3.07V322.8h3.34v10.34a6.77,6.77,0,0,1,5.57-2.51,6.61,6.61,0,0,1,5.58,2.69,12,12,0,0,1,2,7.36Zm-3.34-.38a9,9,0,0,0-1.32-5.27,4.36,4.36,0,0,0-3.79-1.86,4.9,4.9,0,0,0-4.74,3.07V345a5,5,0,0,0,4.78,3.07,4.34,4.34,0,0,0,3.73-1.86A9.59,9.59,0,0,0,361.27,340.59Z" transform="translate(-94.36 -236.89)"/><path class="cls-2" d="M376.22,350.87a8.53,8.53,0,0,1-6.46-2.61,9.67,9.67,0,0,1-2.49-7v-.61a11.71,11.71,0,0,1,1.11-5.19,8.66,8.66,0,0,1,3.1-3.57,7.8,7.8,0,0,1,4.32-1.29,7.31,7.31,0,0,1,5.92,2.51q2.11,2.51,2.11,7.18v1.39H370.61a6.94,6.94,0,0,0,1.69,4.66,5.3,5.3,0,0,0,4.1,1.78,5.81,5.81,0,0,0,3-.72,7.52,7.52,0,0,0,2.15-1.91l2,1.59A8.2,8.2,0,0,1,376.22,350.87Zm-.42-17.5a4.45,4.45,0,0,0-3.39,1.47,7.15,7.15,0,0,0-1.7,4.12h9.78v-.25a6.36,6.36,0,0,0-1.37-3.94A4.19,4.19,0,0,0,375.81,333.37Z" transform="translate(-94.36 -236.89)"/><path class="cls-2" d="M396.59,334a10,10,0,0,0-1.64-.13,4.4,4.4,0,0,0-4.46,2.8v13.85h-3.34V331h3.25l.05,2.25a5.2,5.2,0,0,1,4.65-2.62,3.41,3.41,0,0,1,1.48.25Z" transform="translate(-94.36 -236.89)"/><path class="cls-2" d="M410.32,345.33a2.46,2.46,0,0,0-1-2.1,9.81,9.81,0,0,0-3.55-1.29,16.79,16.79,0,0,1-4-1.3,5.72,5.72,0,0,1-2.2-1.8,4.31,4.31,0,0,1-.71-2.49,5.06,5.06,0,0,1,2-4.06,7.93,7.93,0,0,1,5.19-1.66,8.16,8.16,0,0,1,5.38,1.71,5.44,5.44,0,0,1,2.07,4.38h-3.36a3,3,0,0,0-1.16-2.36,4.36,4.36,0,0,0-2.93-1,4.56,4.56,0,0,0-2.85.79,2.5,2.5,0,0,0-1,2.07,2,2,0,0,0,1,1.82,11.77,11.77,0,0,0,3.45,1.17,18,18,0,0,1,4,1.33,5.91,5.91,0,0,1,2.3,1.87,4.59,4.59,0,0,1,.75,2.66,5,5,0,0,1-2.09,4.19,8.78,8.78,0,0,1-5.43,1.58A9.83,9.83,0,0,1,402,350a6.75,6.75,0,0,1-2.82-2.32,5.59,5.59,0,0,1-1-3.22h3.34a3.46,3.46,0,0,0,1.34,2.66,5.21,5.21,0,0,0,3.31,1,5.38,5.38,0,0,0,3-.77A2.36,2.36,0,0,0,410.32,345.33Z" transform="translate(-94.36 -236.89)"/></svg>